# AST/ASF file generated using VICON BodyLanguage
# -----------------------------------------------
:version 1.10
:name VICON
:units
  mass 1.0
  length 0.45
  angle deg
:documentation
   .ast/.asf automatically generated from VICON data using
   VICON BodyBuilder and BodyLanguage model FoxedUp or BRILLIANT.MOD
:root
   order TX TY TZ RX RY RZ
   axis XYZ
   position 0 0 0  
   orientation 0 0 0 
:bonedata
  begin
     id 1 
     name lhipjoint
     direction 0.575328 -0.747301 0.332475 
     length 2.40933 
     axis 0 0 0  XYZ
  end
  begin
     id 2 
     name lfemur
     direction 0.34202 -0.939693 0  
     length 7.31453  
     axis 0 0 20  XYZ
    dof rx ry rz
    limits (-160.0 20.0)
           (-70.0 70.0)
           (-60.0 70.0)
  end
  begin
     id 3 
     name ltibia
     direction 0.34202 -0.939693 0   
     length 7.82185   
     axis 0 0 20   XYZ
    dof rx
    limits (-10.0 170.0)
  end
  begin
     id 4 
     name lfoot
     direction 0.0795993 -0.218697 0.972541   
     length 2.19173   
     axis -90 7.62852e-016 20   XYZ
    dof rx rz
    limits (-45.0 90.0)
           (-70.0 20.0)
  end
  begin
     id 5 
     name ltoes
     direction 1.53537e-011 -4.21894e-011 1   
     length 1.10023   
     axis -90 7.62852e-016 20   XYZ
    dof rx
    limits (-90.0 20.0)
  end
  begin
     id 6 
     name rhipjoint
     direction -0.513884 -0.783789 0.348708   
     length 2.29716  
     axis 0 0 0  XYZ 
  end
  begin
     id 7 
     name rfemur
     direction -0.34202 -0.939693 0   
     length 7.59573   
     axis 0 0 -20   XYZ
    dof rx ry rz
    limits (-160.0 20.0)
           (-70.0 70.0)
           (-70.0 60.0)
  end
  begin
     id 8 
     name rtibia
     direction -0.34202 -0.939693 0   
     length 7.66402   
     axis 0 0 -20   XYZ
    dof rx
    limits (-10.0 170.0)
 end
 begin
     id 9 
     name rfoot
     direction -0.137793 -0.378584 0.915253   
     length 2.27056  
     axis -90 -7.62852e-016 -20   XYZ
    dof rx rz
    limits (-45.0 90.0)
           (-20.0 70.0)
  end
  begin
     id 10 
     name rtoes
     direction -1.53493e-011 -4.22159e-011 1   
     length 1.11766   
     axis -90 -7.62852e-016 -20   XYZ
    dof rx
    limits (-90.0 20.0)
  end
  begin
     id 11 
     name lowerback
     direction -0.00732775 0.998356 -0.05685   
     length 2.16513   
     axis 0 0 0   XYZ
    dof rx ry rz
    limits (-20.0 45.0)
           (-30.0 30.0)
           (-30.0 30.0)
  end
  begin
     id 12 
     name upperback
     direction 0.0218081 0.999627 -0.0164647   
     length 2.16755   
     axis 0 0 0   XYZ
    dof rx ry rz
    limits (-20.0 45.0)
           (-30.0 30.0)
           (-30.0 30.0)
  end
  begin
     id 13 
     name thorax
     direction 0.02365 0.999661 0.0108914   
     length 2.16932   
     axis 0 0 0   XYZ
    dof rx ry rz
    limits (-20.0 45.0)
           (-30.0 30.0)
           (-30.0 30.0)
  end
  begin
     id 14 
     name lowerneck
     direction -0.0523929 0.978385 0.200044   
     length 1.63877   
     axis 0 0 0   XYZ
    dof rx ry rz
    limits (-20.0 45.0)
           (-30.0 30.0)
           (-30.0 30.0)
  end
  begin
     id 15 
     name upperneck
     direction 0.0448674 0.981321 -0.187074   
     length 1.69014   
     axis 0 0 0   XYZ
    dof rx ry rz
    limits (-20.0 45.0)
           (-30.0 30.0)
           (-30.0 30.0)
  end
  begin
     id 16
     name head
     direction 0.0199089 0.996118 -0.0857429  
     length 1.70094  
     axis 0 0 0   XYZ
    dof rx ry rz
    limits (-20.0 45.0)
           (-30.0 30.0)
           (-30.0 30.0)
  end
  begin
     id 17 
     name lclavicle
     direction 0.940366 0.30191 -0.156722  
     length 3.37521  
     axis 0 0 0   XYZ
    dof ry rz
    limits (-20.0 10.0)
           (0.0 20.0)
  end
  begin
     id 18 
     name lhumerus
     direction 1 -4.4897e-011 -1.7911e-027   
     length 5.25287   
     axis 180 -30 -90   XYZ
    dof rx ry rz
    limits (-60.0 90.0)
           (-90.0 90.0)
           (-90.0 90.0)
  end
  begin
     id 19
     name lradius
     direction 1 -4.48951e-011 1.04424e-027   
     length 3.51014   
     axis 180 -30 -90   XYZ
    dof rx
    limits (-10.0 170.0)
  end
  begin
     id 20
     name lwrist
     direction 1 -4.48997e-011 -9.5942e-028   
     length 1.75507   
     axis 8.48502e-016 90 90   XYZ
    dof ry
    limits (-180.0 0.0)
 end
  begin
     id 21 
     name lhand
     direction 1 -4.48831e-011 -1.90777e-027   
     length 0.706179   
     axis 1.22306e-015 90 90   XYZ
    dof rx rz
    limits (-90.0 90.0)
           (-45.0 45.0)
  end
  begin
     id 22 
     name lfingers
     direction 1 -4.49108e-011 -3.85244e-027   
     length 0.569339   
     axis 2.44611e-015 90 90   XYZ
    dof rx
    limits (0.0 90.0)
  end
  begin
     id 23
     name lthumb
     direction 0.707107 -6.34953e-011 0.707107   
     length 0.817461   
     axis -90 45 -1.62303e-014   XYZ
    dof rx rz
    limits (-45.0 45.0)
           (-45.0 45.0)
  end
  begin
     id 24 
     name rclavicle
     direction -0.905329 0.382405 -0.184787   
     length 3.30787  
     axis 0 0 0   XYZ 
    dof ry rz
    limits (-10.0 20.0)
           (-20.0 0.0)
  end
  begin
     id 25 
     name rhumerus
     direction -1 -4.48953e-011 -9.15316e-029  
     length 5.28721   
     axis 180 30 90   XYZ
    dof rx ry rz
    limits (-90.0 60.0)
           (-90.0 90.0)
           (-90.0 90.0)
  end
  begin
     id 26 
     name rradius
     direction -1 -4.48987e-011 9.37824e-028   
     length 3.50544   
     axis 180 30 90   XYZ
    dof rx
    limits (-10.0 170.0)
  end
  begin
     id 27 
     name rwrist
     direction -1 -4.48967e-011 -9.58414e-028   
     length 1.75272   
     axis 8.48502e-016 -90 -90   XYZ
    dof ry
    limits (-180.0 0.0)
  end
  begin
     id 28
     name rhand
     direction -1 -4.48904e-011 -1.91266e-027   
     length 0.884996   
     axis 1.22306e-015 -90 -90   XYZ
    dof rx rz
    limits (-90.0 90.0)
           (-45.0 45.0)
  end
  begin
     id 29
     name rfingers
     direction -1 -4.4909e-011 -3.85015e-027   
     length 0.713507   
     axis 2.44611e-015 -90 -90   XYZ
    dof rx
    limits (0.0 90.0)
  end
  begin
     id 30
     name rthumb
     direction -0.707107 -6.34853e-011 0.707107   
     length 1.02446   
     axis -90 -45 1.62303e-014   XYZ
    dof rx rz
    limits (-45.0 45.0)
           (-45.0 45.0)
  end
:hierarchy
  begin
    root lhipjoint rhipjoint lowerback
    lhipjoint lfemur
    lfemur ltibia
    ltibia lfoot
    lfoot ltoes
    rhipjoint rfemur
    rfemur rtibia
    rtibia rfoot
    rfoot rtoes
    lowerback upperback
    upperback thorax
    thorax lowerneck lclavicle rclavicle
    lowerneck upperneck
    upperneck head
    lclavicle lhumerus
    lhumerus lradius
    lradius lwrist
    lwrist lhand lthumb
    lhand lfingers
    rclavicle rhumerus
    rhumerus rradius
    rradius rwrist
    rwrist rhand rthumb
    rhand rfingers
  end

#!OML:ASF F:\twosubjects\two\Thursday\Session 1\justin.ASF
:FULLY-SPECIFIED
:DEGREES
65
root 11.3663 16.6044 -7.53959 12.2572 -23.9939 -1.95095
lowerback 11.6962 0.481647 -4.38251
upperback 3.89382 0.172015 2.02522
thorax -2.49436 0.0519986 4.57037
lowerneck -21.6883 -1.31765 -6.59885
upperneck 17.4453 -0.809695 4.95167
head 9.09276 -0.26632 2.67973
rclavicle 5.3852e-014 -2.27484e-014
rhumerus -21.9642 -15.8363 -43.1395
rradius 131.404
rwrist 38.795
rhand -40.502 49.1953
rfingers 7.12502
rthumb -13.4516 19.6497
lclavicle 5.3852e-014 -2.27484e-014
lhumerus -44.3897 18.8391 67.0455
lradius 55.2365
lwrist -4.91438
lhand -11.7341 30.8738
lfingers 7.12502
lthumb 14.3133 60.3604
rfemur -18.2997 -3.78268 25.4834
rtibia 67.7528
rfoot -12.5234 -0.428506
rtoes -14.2657
lfemur -46.6462 8.04847 -18.4393
ltibia 56.8177
lfoot -19.7603 -0.824573
ltoes -5.0412
66
root 11.341 16.6697 -7.42192 12.2301 -24.1058 -1.86283
lowerback 11.6735 0.503716 -4.5813
upperback 3.90589 0.181732 2.09108
thorax -2.46996 0.0551039 4.75185
lowerneck -21.3101 -1.31371 -6.89121
upperneck 16.9495 -0.744968 5.04151
head 8.85294 -0.244798 2.75766
rclavicle 4.02539e-015 -1.09332e-015
rhumerus -22.2576 -16.1586 -42.9939
rradius 130.951
rwrist 38.4865
rhand -40.5578 50.3885
rfingers 7.12502
rthumb -13.5054 20.8464
lclavicle 4.02539e-015 -1.09332e-015
lhumerus -43.8813 18.9147 67.0309
lradius 53.8071
lwrist -5.11245
lhand -12.9311 29.5218
lfingers 7.12502
lthumb 13.1596 59.0865
rfemur -18.862 -3.93869 25.2178
rtibia 68.5962
rfoot -10.5196 -0.250159
rtoes -14.0437
lfemur -45.9336 8.19772 -18.6618
ltibia 56.2354
lfoot -20.1738 -0.393014
ltoes -7.33309
67
root 11.3224 16.724 -7.30714 12.1728 -24.0619 -1.69939
lowerback 11.7819 0.400637 -4.7012
upperback 3.80302 0.0280965 2.10537
thorax -2.61837 -0.0145542 4.858
lowerneck -20.9795 -1.2266 -7.06022
upperneck 16.7203 -0.59561 5.06191
head 8.70753 -0.184863 2.80672
rclavicle 6.20332e-014 -2.0773e-014
rhumerus -22.4614 -16.248 -43.192
rradius 130.27
rwrist 38.302
rhand -41.5359 51.4681
rfingers 7.12502
rthumb -14.448 21.9911
lclavicle 6.20332e-014 -2.0773e-014
lhumerus -43.6231 19.0751 66.8777
lradius 52.5592
lwrist -5.37099
lhand -13.3915 29.3155
lfingers 7.12502
lthumb 12.7158 58.9084
rfemur -19.4227 -4.28579 24.8486
rtibia 69.4542
rfoot -9.16892 -0.07089
rtoes -13.7694
lfemur -45.0848 8.11645 -18.8983
ltibia 55.5479
lfoot -20.5336 -0.336624
ltoes -8.24374
68
root 11.3064 16.7757 -7.19118 12.2807 -23.7462 -1.69695
lowerback 11.7783 0.230693 -4.39068
upperback 3.68852 -0.160821 2.07935
thorax -2.71645 -0.102069 4.68001
lowerneck -21.0301 -1.3302 -7.19328
upperneck 16.8243 -0.707562 5.11871
head 8.76029 -0.24053 2.8353
rclavicle 3.926e-015 -5.81445e-015
rhumerus -22.7744 -16.6007 -43.6149
rradius 129.354
rwrist 38.0535
rhand -42.6384 53.0592
rfingers 7.12502
rthumb -15.5101 23.6613
lclavicle 3.926e-015 -5.81445e-015
lhumerus -43.1279 19.0723 66.7836
lradius 51.2103
lwrist -5.5806
lhand -14.3854 29.1758
lfingers 7.12502
lthumb 11.7575 58.8258
rfemur -20.1421 -4.81677 24.7094
rtibia 70.3164
rfoot -8.34618 -0.0817807
rtoes -14.0432
lfemur -44.3301 7.71766 -18.8528
ltibia 54.763
lfoot -20.4649 -0.730762
ltoes -6.21823
69
root 11.2864 16.8201 -7.08216 12.4112 -23.5572 -1.42989
lowerback 11.6773 0.129092 -4.46092
upperback 3.53668 -0.299297 2.04372
thorax -2.80407 -0.164011 4.70151
lowerneck -21.0969 -1.51454 -7.35504
upperneck 16.8652 -0.892771 5.05721
head 8.79952 -0.344606 2.81669
rclavicle -6.38347e-014 3.50855e-014
rhumerus -23.2502 -16.7775 -43.7029
rradius 128.546
rwrist 37.8032
rhand -42.7811 54.2738
rfingers 7.12502
rthumb -15.6475 24.8866
lclavicle -6.38347e-014 3.50855e-014
lhumerus -42.6164 18.9692 66.829
lradius 49.877
lwrist -5.59609
lhand -15.3311 29.4577
lfingers 7.12502
lthumb 10.8454 59.1576
rfemur -21.1612 -5.31289 24.3786
rtibia 71.2392
rfoot -7.66223 -0.471791
rtoes -15.3176
lfemur -43.6536 7.31048 -19.0978
ltibia 53.8881
lfoot -20.156 -0.738899
ltoes -5.60236
